<svg width="351" height="157" viewBox="0 0 351 157" fill="none" xmlns="http://www.w3.org/2000/svg">
<path fill-rule="evenodd" clip-rule="evenodd" d="M45 23.9404L81.5831 0L161.5 53.4782V156.688H0V53.3889L18 41.6095V7.68823H45V23.9404ZM134.5 67.8981L81.4169 32.3763L27 67.9874V129.688H134.5V67.8981Z" fill="#2F84E7"/>
<path fill-rule="evenodd" clip-rule="evenodd" d="M82.5178 66.5055V65.1885H79.8293V66.5055V69.4453L76.0807 67.0596L74.9534 66.3421L73.4888 68.5511L74.6161 69.2686L79.8293 72.5864V78.6859L77.0216 76.5402L74.8505 74.8811V77.5787V81.3205L70.5688 78.8438V72.9446V71.6275H67.8803V72.9446V77.2887L64.4811 75.3226L63.3235 74.653L61.9567 76.9214L63.1143 77.5909L66.4167 79.5011L61.7018 81.8158L60.5 82.4059L61.7044 84.7609L62.9063 84.1709L69.1719 81.0948L73.4498 83.5692L70.3345 85.1971L68.0383 86.397L70.3659 87.5372L73.5512 89.0976L68.6102 91.9984L63.5497 88.6794L62.4326 87.9467L60.9371 90.1357L62.0541 90.8683L66.0599 93.4956L63.1067 95.2294L61.9536 95.9064L63.3355 98.166L64.4886 97.489L67.482 95.7316V100.652V101.969H70.1705V100.652V94.1532L74.9336 91.3569L74.851 94.3233L74.7865 96.6414L76.8516 95.5084L79.8293 93.8746V99.3997L73.7179 103.305L72.5919 104.024L74.0606 106.231L75.1866 105.511L79.8293 102.545V105.871V107.188H82.5178V105.871V102.2L87.1303 104.772L88.2986 105.424L89.6286 103.134L88.4603 102.483L82.5178 99.1687V94.0319L85.8269 96.1032L87.8949 97.3977V94.9934V91.2579L92.1202 93.613V99.9202V101.237H94.8087V99.9202V95.2989L97.4587 97.0183L98.5795 97.7455L100.064 95.5493L98.9432 94.8221L96.1752 93.0261L100.23 91.106L101.44 90.5328L100.27 88.1612L99.0598 88.7344L93.5153 91.3601L89.27 88.9938L91.9447 87.5042L93.9635 86.3799L91.9631 85.2246L89.1156 83.58L93.9233 80.558L98.9247 83.6665L100.06 84.372L101.5 82.1477L100.365 81.4422L96.6249 79.1177L98.8138 78.0193L100.01 77.4188L98.7846 75.0743L97.5881 75.6748L95.2635 76.8413V72.5055V71.1885H92.5749V72.5055V78.2759L88.064 81.1114L88.3402 76.9321L88.5361 73.9672L86.1623 75.816L82.5178 78.6542V72.5551L87.3242 69.2412L88.4236 68.4832L86.8764 66.329L85.777 67.087L82.5178 69.3341V66.5055ZM82.01 82.4146L85.4613 79.7268L85.2092 83.5424L85.1558 84.3508L85.868 84.7621L88.5974 86.3385L85.8863 87.8483L85.2064 88.227V88.9934V92.589L81.8973 90.5176L81.219 90.093L80.5168 90.4783L77.6031 92.077L77.6879 89.0293L77.7113 88.1905L76.9453 87.8153L73.8959 86.3215L76.8274 84.7896L77.5391 84.4177V83.6275V80.2764L80.3468 82.4221L81.1814 83.0599L82.01 82.4146Z" fill="#2F84E7"/>
<path d="M192.339 78.259L201.621 64.6072H205.795L194.451 80.9108L205.795 98.0001H201.621L192.339 83.7099L183.058 98.0001H178.835L190.228 80.9108L178.884 64.6072H183.058L192.339 78.259Z" fill="#151515"/>
<path d="M208.31 81.3036C208.31 78.7828 208.719 76.4911 209.537 74.4286C210.356 72.3334 211.502 70.5492 212.975 69.0759C214.481 67.6027 216.281 66.4569 218.377 65.6384C220.472 64.82 222.796 64.4108 225.35 64.4108C227.903 64.4108 230.228 64.82 232.323 65.6384C234.418 66.4569 236.203 67.6027 237.676 69.0759C239.149 70.5492 240.295 72.3334 241.113 74.4286C241.932 76.4911 242.341 78.7828 242.341 81.3036C242.341 83.8245 241.932 86.1325 241.113 88.2277C240.295 90.2902 239.149 92.0581 237.676 93.5313C236.203 95.0045 234.418 96.1504 232.323 96.9688C230.228 97.7873 227.903 98.1965 225.35 98.1965C222.796 98.1965 220.472 97.7873 218.377 96.9688C216.281 96.1504 214.481 95.0045 212.975 93.5313C211.502 92.0581 210.356 90.2902 209.537 88.2277C208.719 86.1325 208.31 83.8245 208.31 81.3036ZM211.502 81.3036C211.502 83.3989 211.829 85.314 212.484 87.0492C213.139 88.7515 214.055 90.2084 215.234 91.4197C216.445 92.5983 217.902 93.5149 219.604 94.1697C221.339 94.8245 223.255 95.1518 225.35 95.1518C227.445 95.1518 229.344 94.8245 231.046 94.1697C232.749 93.5149 234.189 92.5983 235.368 91.4197C236.579 90.2084 237.512 88.7515 238.167 87.0492C238.822 85.314 239.149 83.3989 239.149 81.3036C239.149 79.1756 238.822 77.2605 238.167 75.5581C237.512 73.8557 236.579 72.4152 235.368 71.2367C234.189 70.0254 232.749 69.0923 231.046 68.4376C229.344 67.7828 227.445 67.4554 225.35 67.4554C223.255 67.4554 221.339 67.7828 219.604 68.4376C217.902 69.0923 216.445 70.0254 215.234 71.2367C214.055 72.4152 213.139 73.8557 212.484 75.5581C211.829 77.2605 211.502 79.1756 211.502 81.3036Z" fill="#151515"/>
<path d="M257.691 67.6518L255.285 88.5224C255.089 90.2248 254.63 91.6816 253.91 92.8929C253.19 94.1042 252.322 95.0864 251.307 95.8393C250.325 96.5923 249.245 97.1489 248.066 97.509C246.92 97.8364 245.824 98.0001 244.776 98.0001V94.9554C245.725 94.9554 246.609 94.8081 247.428 94.5134C248.246 94.1861 248.983 93.7441 249.638 93.1876C250.292 92.5983 250.833 91.9108 251.258 91.1251C251.684 90.3066 251.962 89.4063 252.093 88.4242L254.892 64.6072H275.763V98.0001H272.571V67.6518H257.691Z" fill="#151515"/>
<path d="M282.053 81.3036C282.053 78.7828 282.462 76.4911 283.28 74.4286C284.099 72.3334 285.245 70.5492 286.718 69.0759C288.224 67.6027 290.024 66.4569 292.12 65.6384C294.215 64.82 296.539 64.4108 299.093 64.4108C301.646 64.4108 303.971 64.82 306.066 65.6384C308.161 66.4569 309.946 67.6027 311.419 69.0759C312.892 70.5492 314.038 72.3334 314.856 74.4286C315.675 76.4911 316.084 78.7828 316.084 81.3036C316.084 83.8245 315.675 86.1325 314.856 88.2277C314.038 90.2902 312.892 92.0581 311.419 93.5313C309.946 95.0045 308.161 96.1504 306.066 96.9688C303.971 97.7873 301.646 98.1965 299.093 98.1965C296.539 98.1965 294.215 97.7873 292.12 96.9688C290.024 96.1504 288.224 95.0045 286.718 93.5313C285.245 92.0581 284.099 90.2902 283.28 88.2277C282.462 86.1325 282.053 83.8245 282.053 81.3036ZM285.245 81.3036C285.245 83.3989 285.572 85.314 286.227 87.0492C286.882 88.7515 287.798 90.2084 288.977 91.4197C290.188 92.5983 291.645 93.5149 293.347 94.1697C295.082 94.8245 296.998 95.1518 299.093 95.1518C301.188 95.1518 303.087 94.8245 304.789 94.1697C306.492 93.5149 307.932 92.5983 309.111 91.4197C310.322 90.2084 311.255 88.7515 311.91 87.0492C312.565 85.314 312.892 83.3989 312.892 81.3036C312.892 79.1756 312.565 77.2605 311.91 75.5581C311.255 73.8557 310.322 72.4152 309.111 71.2367C307.932 70.0254 306.492 69.0923 304.789 68.4376C303.087 67.7828 301.188 67.4554 299.093 67.4554C296.998 67.4554 295.082 67.7828 293.347 68.4376C291.645 69.0923 290.188 70.0254 288.977 71.2367C287.798 72.4152 286.882 73.8557 286.227 75.5581C285.572 77.2605 285.245 79.1756 285.245 81.3036Z" fill="#151515"/>
<path d="M346.103 94.9554H348.461V103.893H345.219V98.0001H322.336V103.893H319.144V94.9554C319.438 94.9554 319.815 94.8245 320.273 94.5626C320.764 94.2679 321.239 93.8587 321.697 93.3349C322.188 92.7783 322.614 92.0908 322.974 91.2724C323.367 90.4539 323.629 89.4881 323.76 88.3751L326.51 64.6072H346.103V94.9554ZM342.911 94.9554V67.6518H329.456L327.099 88.4733C326.935 89.8483 326.559 91.1414 325.969 92.3527C325.413 93.5313 324.725 94.3989 323.907 94.9554H342.911Z" fill="#151515"/>
<path d="M263.728 141.955H266.085V150.893H262.844V145H239.96V150.893H236.768V141.955C237.062 141.955 237.439 141.824 237.897 141.563C238.388 141.268 238.863 140.859 239.321 140.335C239.812 139.778 240.238 139.091 240.598 138.272C240.991 137.454 241.253 136.488 241.384 135.375L244.134 111.607H263.728V141.955ZM260.536 141.955V114.652H247.08L244.723 135.473C244.559 136.848 244.183 138.141 243.594 139.353C243.037 140.531 242.35 141.399 241.531 141.955H260.536Z" fill="#151515"/>
<path d="M270.519 128.304C270.519 125.783 270.929 123.491 271.747 121.429C272.566 119.333 273.711 117.549 275.185 116.076C276.691 114.603 278.491 113.457 280.586 112.638C282.682 111.82 285.006 111.411 287.56 111.411C290.113 111.411 292.438 111.82 294.533 112.638C296.628 113.457 298.412 114.603 299.886 116.076C301.359 117.549 302.505 119.333 303.323 121.429C304.141 123.491 304.551 125.783 304.551 128.304C304.551 130.824 304.141 133.132 303.323 135.228C302.505 137.29 301.359 139.058 299.886 140.531C298.412 142.005 296.628 143.15 294.533 143.969C292.438 144.787 290.113 145.196 287.56 145.196C285.006 145.196 282.682 144.787 280.586 143.969C278.491 143.15 276.691 142.005 275.185 140.531C273.711 139.058 272.566 137.29 271.747 135.228C270.929 133.132 270.519 130.824 270.519 128.304ZM273.711 128.304C273.711 130.399 274.039 132.314 274.694 134.049C275.348 135.752 276.265 137.208 277.444 138.42C278.655 139.598 280.112 140.515 281.814 141.17C283.549 141.824 285.464 142.152 287.56 142.152C289.655 142.152 291.554 141.824 293.256 141.17C294.958 140.515 296.399 139.598 297.577 138.42C298.789 137.208 299.722 135.752 300.377 134.049C301.031 132.314 301.359 130.399 301.359 128.304C301.359 126.176 301.031 124.26 300.377 122.558C299.722 120.856 298.789 119.415 297.577 118.237C296.399 117.025 294.958 116.092 293.256 115.438C291.554 114.783 289.655 114.455 287.56 114.455C285.464 114.455 283.549 114.783 281.814 115.438C280.112 116.092 278.655 117.025 277.444 118.237C276.265 119.415 275.348 120.856 274.694 122.558C274.039 124.26 273.711 126.176 273.711 128.304Z" fill="#151515"/>
<path d="M329.643 141.17L342.41 111.607H345.848L350.12 145L346.83 145.049L343.393 117.107L331.312 145H328.022L315.893 117.156L312.553 145.049L309.214 145L313.486 111.607H316.924L329.643 141.17Z" fill="#151515"/>
<path d="M178.783 111.607H193.319C194.465 111.607 195.528 111.787 196.511 112.147C197.526 112.507 198.409 113.015 199.162 113.67C199.915 114.324 200.505 115.127 200.93 116.076C201.389 116.993 201.618 118.024 201.618 119.17C201.618 120.577 201.29 121.854 200.636 123C199.981 124.146 199.13 125.063 198.082 125.75C200.243 126.372 201.912 127.436 203.091 128.942C204.302 130.448 204.908 132.429 204.908 134.884C204.908 136.455 204.63 137.863 204.073 139.107C203.517 140.351 202.715 141.415 201.667 142.299C200.652 143.183 199.424 143.854 197.984 144.313C196.576 144.771 194.988 145 193.22 145H178.783V111.607ZM192.778 125.063C193.499 125.063 194.203 124.948 194.89 124.719C195.578 124.49 196.183 124.146 196.707 123.688C197.231 123.229 197.64 122.673 197.935 122.018C198.262 121.363 198.426 120.61 198.426 119.759C198.426 118.089 197.886 116.829 196.805 115.978C195.758 115.094 194.497 114.652 193.024 114.652H181.975V125.063H192.778ZM193.22 141.955C195.84 141.955 197.902 141.366 199.408 140.188C200.914 138.976 201.667 137.225 201.667 134.933C201.667 132.445 200.898 130.644 199.359 129.531C197.82 128.418 195.823 127.862 193.368 127.862H181.975V141.955H193.22Z" fill="#151515"/>
</svg>
